<?xml version="1.0" ?><svg viewBox="0 0 24 24" xmlns="http://www.w3.org/2000/svg"><defs><style>.cls-1,.cls-2{fill:none;}.cls-2{stroke:#000;stroke-linecap:round;stroke-linejoin:round;}</style></defs><g data-name="Layer 2" id="Layer_2"><g id="Workspace"><rect class="cls-1" height="24" width="24"/><path class="cls-2" d="M6,14H16.5A1.5,1.5,0,0,1,18,15.5h0A1.5,1.5,0,0,1,16.5,17h0A1.5,1.5,0,0,1,15,15.5"/><path class="cls-2" d="M6,12H18.5A1.5,1.5,0,0,0,20,10.5h0A1.5,1.5,0,0,0,18.5,9h0A1.5,1.5,0,0,0,17,10.5"/><path class="cls-2" d="M6,10h7.5A1.5,1.5,0,0,0,15,8.5h0A1.5,1.5,0,0,0,13.5,7h0A1.5,1.5,0,0,0,12,8.5"/><line class="cls-2" x1="6" x2="13" y1="16" y2="16"/></g></g></svg>